<svg id="visual" viewBox="0 0 900 900" width="900" height="900" xmlns="http://www.w3.org/2000/svg" xmlns:xlink="http://www.w3.org/1999/xlink" version="1.1"><g transform="translate(-180.71122622387554 20.72893153414583)"><path d="M568.4 -913.2C690.7 -805.8 712.4 -570.5 804.8 -367.7C897.2 -164.9 1060.3 5.5 1014.5 127.8C968.8 250 714.1 324.1 540 396C365.8 467.9 272.1 537.6 141.6 654.8C11.1 772.1 -156.2 936.8 -317.8 949.8C-479.4 962.9 -635.3 824.3 -658 651.7C-680.6 479.1 -570 272.6 -543.5 110.2C-517 -52.2 -574.6 -170.5 -582 -312.1C-589.4 -453.8 -546.6 -618.9 -441.3 -734.2C-335.9 -849.4 -168 -914.7 27.5 -957.5C223 -1000.4 446 -1020.7 568.4 -913.2" fill="#eaa1c2"></path></g></svg>