<svg id="visual" viewBox="0 0 1440 250" width="1440" height="250" xmlns="http://www.w3.org/2000/svg" xmlns:xlink="http://www.w3.org/1999/xlink" version="1.1"><rect x="0" y="0" width="1440" height="250" fill="transparent"></rect><path d="M0 125L12 127.2C24 129.3 48 133.7 72 130.8C96 128 120 118 144 117.3C168 116.7 192 125.3 216 129.7C240 134 264 134 288 133C312 132 336 130 360 126.5C384 123 408 118 432 111.5C456 105 480 97 504 96.3C528 95.7 552 102.3 576 114.7C600 127 624 145 648 159.3C672 173.7 696 184.3 720 180.7C744 177 768 159 792 157C816 155 840 169 864 173.8C888 178.7 912 174.3 936 176.5C960 178.7 984 187.3 1008 177.8C1032 168.3 1056 140.7 1080 131.3C1104 122 1128 131 1152 138.5C1176 146 1200 152 1224 162.2C1248 172.3 1272 186.7 1296 187.2C1320 187.7 1344 174.3 1368 161.8C1392 149.3 1416 137.7 1428 131.8L1440 126L1440 251L1428 251C1416 251 1392 251 1368 251C1344 251 1320 251 1296 251C1272 251 1248 251 1224 251C1200 251 1176 251 1152 251C1128 251 1104 251 1080 251C1056 251 1032 251 1008 251C984 251 960 251 936 251C912 251 888 251 864 251C840 251 816 251 792 251C768 251 744 251 720 251C696 251 672 251 648 251C624 251 600 251 576 251C552 251 528 251 504 251C480 251 456 251 432 251C408 251 384 251 360 251C336 251 312 251 288 251C264 251 240 251 216 251C192 251 168 251 144 251C120 251 96 251 72 251C48 251 24 251 12 251L0 251Z" fill="#f7f179" stroke-linecap="round" stroke-linejoin="miter"></path></svg>