<svg id="visual" viewBox="0 0 1440 250" width="1440" height="250" xmlns="http://www.w3.org/2000/svg" xmlns:xlink="http://www.w3.org/1999/xlink" version="1.1"><rect x="0" y="0" width="1440" height="250" fill="transparent"></rect><path d="M0 142L12 143.3C24 144.7 48 147.3 72 140.5C96 133.7 120 117.3 144 124.8C168 132.3 192 163.7 216 176.7C240 189.7 264 184.3 288 180.3C312 176.3 336 173.7 360 160.2C384 146.7 408 122.3 432 109.8C456 97.3 480 96.7 504 111.8C528 127 552 158 576 167.5C600 177 624 165 648 148.3C672 131.7 696 110.3 720 112.2C744 114 768 139 792 153.8C816 168.7 840 173.3 864 164.5C888 155.7 912 133.3 936 129.2C960 125 984 139 1008 137.3C1032 135.7 1056 118.3 1080 123C1104 127.7 1128 154.3 1152 171.8C1176 189.3 1200 197.7 1224 198.8C1248 200 1272 194 1296 183.5C1320 173 1344 158 1368 160.8C1392 163.7 1416 184.3 1428 194.7L1440 205L1440 251L1428 251C1416 251 1392 251 1368 251C1344 251 1320 251 1296 251C1272 251 1248 251 1224 251C1200 251 1176 251 1152 251C1128 251 1104 251 1080 251C1056 251 1032 251 1008 251C984 251 960 251 936 251C912 251 888 251 864 251C840 251 816 251 792 251C768 251 744 251 720 251C696 251 672 251 648 251C624 251 600 251 576 251C552 251 528 251 504 251C480 251 456 251 432 251C408 251 384 251 360 251C336 251 312 251 288 251C264 251 240 251 216 251C192 251 168 251 144 251C120 251 96 251 72 251C48 251 24 251 12 251L0 251Z" fill="#f7f179" stroke-linecap="round" stroke-linejoin="miter"></path></svg>