<svg id="visual" viewBox="0 0 1440 250" width="1440" height="250" xmlns="http://www.w3.org/2000/svg" xmlns:xlink="http://www.w3.org/1999/xlink" version="1.1"><rect x="0" y="0" width="1440" height="250" fill="#eaa1c2"></rect><path d="M0 157L17.2 160.2C34.3 163.3 68.7 169.7 103 157C137.3 144.3 171.7 112.7 206 96.2C240.3 79.7 274.7 78.3 308.8 84.5C343 90.7 377 104.3 411.2 102.3C445.3 100.3 479.7 82.7 514 85.3C548.3 88 582.7 111 617 123.7C651.3 136.3 685.7 138.7 720 143.3C754.3 148 788.7 155 823 143.8C857.3 132.7 891.7 103.3 926 85C960.3 66.7 994.7 59.3 1028.8 67.3C1063 75.3 1097 98.7 1131.2 115.5C1165.3 132.3 1199.7 142.7 1234 152.3C1268.3 162 1302.7 171 1337 169.7C1371.3 168.3 1405.7 156.7 1422.8 150.8L1440 145L1440 251L1422.8 251C1405.7 251 1371.3 251 1337 251C1302.7 251 1268.3 251 1234 251C1199.7 251 1165.3 251 1131.2 251C1097 251 1063 251 1028.8 251C994.7 251 960.3 251 926 251C891.7 251 857.3 251 823 251C788.7 251 754.3 251 720 251C685.7 251 651.3 251 617 251C582.7 251 548.3 251 514 251C479.7 251 445.3 251 411.2 251C377 251 343 251 308.8 251C274.7 251 240.3 251 206 251C171.7 251 137.3 251 103 251C68.7 251 34.3 251 17.2 251L0 251Z" fill="#666396" stroke-linecap="round" stroke-linejoin="miter"></path></svg>